# xmcd CD database file
#
# Track frame offsets:
#	150
#	3770
#	17650
#	43605
#	64050
#	88765
#	113762
#	148022
#	164867
#	196987
#	220905
#	249512
#	272175
#
# Disc length: 4021 seconds
#
# Revision: 0
# Processed by: cddbd v1.5.1PL0 Copyright (c) Steve Scherf et al.
# Submitted via: CDex 1.51
#
DISCID=b80fb30d
DTITLE=Makoto Ozone - Oz Meets Jazz2
DYEAR=2004
DGENRE=Jazz
TTITLE0=INTRO
TTITLE1=I'm old fashioned
TTITLE2=autumn
TTITLE3=carnaval pra manha
TTITLE4=isaura
TTITLE5=hold 'em Joe
TTITLE6=turn out the stars
TTITLE7=walking together
TTITLE8=washed ashore
TTITLE9=what kind of fool am I ?
TTITLE10=a picture of Yo-u
TTITLE11=SANDU
TTITLE12=The music that makes me dance
EXTD=YEAR: 2004
EXTT0=
EXTT1=
EXTT2=
EXTT3=
EXTT4=
EXTT5=
EXTT6=
EXTT7=
EXTT8=
EXTT9=
EXTT10=
EXTT11=
EXTT12=
PLAYORDER=
